<?xml version="1.0" encoding="utf-8"?>
<!-- Generator: Adobe Illustrator 16.0.0, SVG Export Plug-In . SVG Version: 6.00 Build 0)  -->
<!DOCTYPE svg PUBLIC "-//W3C//DTD SVG 1.1//EN" "http://www.w3.org/Graphics/SVG/1.1/DTD/svg11.dtd">
<svg version="1.1" id="Layer_1" xmlns="http://www.w3.org/2000/svg" xmlns:xlink="http://www.w3.org/1999/xlink" x="0px" y="0px"
	 width="91.121px" height="88.901px" viewBox="0 0 91.121 88.901" enable-background="new 0 0 91.121 88.901" xml:space="preserve">
<path fill="#DA2128" d="M88.874,44.407c0,23.897-19.375,43.27-43.269,43.27c-23.896,0-43.272-19.372-43.272-43.27
	s19.376-43.27,43.272-43.27C69.499,1.137,88.874,20.509,88.874,44.407"/>
<path fill="#FFFFFF" d="M53.926,56.478c0,1.002-0.816,1.815-1.822,1.815c-1,0-1.811-0.813-1.811-1.815V46.343
	c0-1.002,0.811-1.815,1.811-1.815c1.006,0,1.822,0.813,1.822,1.815V56.478"/>
<path fill="#FFFFFF" d="M59.688,50.496l4.094-4.919c0.645-0.769,0.535-1.914-0.229-2.558c-0.771-0.641-1.918-0.542-2.56,0.23
	l-5.046,6.065c-0.577,0.69-0.553,1.683,0.018,2.339l0.002,0.01l4.959,5.979c0.645,0.766,1.79,0.869,2.559,0.23
	c0.772-0.644,0.876-1.791,0.229-2.563L59.688,50.496"/>
<path fill="#FFFFFF" d="M28.574,56.478c0,1.002-0.813,1.815-1.817,1.815c-1.006,0-1.813-0.813-1.813-1.815V46.343
	c0-1.002,0.807-1.815,1.813-1.815c1.004,0,1.817,0.813,1.817,1.815V56.478"/>
<path fill="#FFFFFF" d="M39.62,42.598c-4.331,0-7.843,3.505-7.849,7.833v11.113c0,1.005,0.814,1.817,1.816,1.817
	c1.003,0,1.818-0.813,1.818-1.817v-4.481c1.22,0.776,2.664,1.23,4.215,1.23c4.335,0,7.847-3.516,7.847-7.849
	C47.467,46.108,43.956,42.598,39.62,42.598 M39.62,54.757c-2.382,0-4.314-1.931-4.314-4.313s1.933-4.315,4.314-4.315
	c2.384,0,4.319,1.934,4.319,4.315S42.004,54.757,39.62,54.757"/>
<path fill="#FFFFFF" d="M73.687,42.598c-4.337,0-7.849,3.51-7.849,7.847c0,4.333,3.512,7.849,7.849,7.849
	c4.334,0,7.853-3.516,7.853-7.849C81.54,46.108,78.021,42.598,73.687,42.598 M73.687,54.757c-2.38,0-4.313-1.931-4.313-4.313
	s1.934-4.315,4.313-4.315c2.383,0,4.314,1.934,4.314,4.315S76.07,54.757,73.687,54.757"/>
<path fill="#000018" d="M24.098,61.036c0,1.285-1.042,2.326-2.331,2.326c-1.284,0-2.329-1.041-2.329-2.326
	c0-1.289,1.045-2.329,2.329-2.329C23.056,58.707,24.098,59.747,24.098,61.036"/>
</svg>
